<svg xmlns="http://www.w3.org/2000/svg" xml:space="preserve" style="fill-rule:evenodd;clip-rule:evenodd;stroke-linecap:round;stroke-linejoin:round;stroke-miterlimit:1.5" viewBox="0 0 68 113"><path d="M24.674 0s2.676 4.554 14.632 7.947c11.957 3.394 11.462 10.255 11.462 10.255s-6.141-5.654-22.651-6.372l-3.186-5.622 2.657.357S25.332 4.637 24.674 0" style="fill:#fff;fill-rule:nonzero"/><path d="M56.743 24.973s-7.577-13.408-34.012-10.412l3.366 6.235s14.301-3.855 30.646 4.177M9.099 39.729s7.577 13.409 34.013 10.413l-3.367-6.236s-14.3 3.855-30.646-4.177M18.735 29.77c.529.736 1.449 1.207 2.529 1.207 1.196 0 1.69-.782 1.69-1.425 0-.69-.782-1.012-1.621-1.345-1.034-.414-2.184-.862-2.184-2.069 0-1.184 1.127-2.23 2.713-2.23 1.184 0 2.23.46 2.77 1.207l-.655.666c-.506-.701-1.38-1.034-2.219-1.034-.896 0-1.586.609-1.586 1.264 0 .621.747.92 1.575 1.253 1.046.425 2.23.908 2.23 2.138 0 1.219-.989 2.425-2.793 2.425-1.38 0-2.575-.586-3.104-1.367l.655-.69ZM25.563 28.712l1.035-4.689h.954l-1.023 4.667a2.084 2.084 0 0 0-.058.482c0 1.046.724 1.805 2.023 1.805 1.403 0 2.058-.874 2.368-2.287l1.035-4.667h.954l-1.023 4.678c-.426 1.885-1.288 3.126-3.334 3.126-1.896 0-2.988-1-2.988-2.551 0-.196.034-.426.057-.564M38.621 26.08c0-.655-.529-1.207-1.276-1.207h-1.931l-.655 2.92h2.011c1.207 0 1.851-.793 1.851-1.713m-3.977-2.057h2.851c1.321 0 2.126.919 2.126 1.988 0 1.161-.781 2.633-2.931 2.633h-2.115l-.667 3.046h-.954l1.69-7.667ZM41.391 24.023h5.023l-.183.85h-4.07l-.551 2.472h3.988l-.184.85h-4l-.586 2.644h4.081l-.184.851h-5.023l1.689-7.667Z" style="fill:#fff;fill-rule:nonzero"/><path d="M51.909 26.103c0-.724-.644-1.23-1.299-1.23h-1.908l-.656 2.931h2.024c1.183 0 1.839-.77 1.839-1.701m-2.449 2.541h-1.609l-.655 3.046h-.954l1.69-7.667h2.816c1.103 0 2.172.747 2.172 2 0 1.414-1 2.471-2.494 2.575l1.379 3.092h-1.057l-1.288-3.046ZM15.183 32.979h1.978l-1.311 5.943h3.081l-.38 1.724h-5.057l1.689-7.667ZM21.264 32.979h5.621l-.368 1.667h-3.644l-.276 1.276h3.552l-.368 1.678H22.23l-.311 1.38h3.644l-.368 1.666h-5.621l1.69-7.667ZM29.31 37.819h2.138l-.379-3.173-1.759 3.173Zm2.288 1.666h-3.173l-.655 1.161h-2.241l4.574-7.667h2.483l1.207 7.667h-2.046l-.149-1.161ZM38.989 32.853c1.701 0 2.781.943 3.23 1.943l-1.816.758c-.219-.552-.92-.954-1.702-.954-1.299 0-2.379 1.127-2.379 2.575 0 .988.701 1.862 1.943 1.862.551 0 .977-.195 1.322-.46l.137-.643h-1.77l.38-1.656h3.701l-.678 3.023c-.736.931-1.874 1.483-3.207 1.483-2.104 0-3.886-1.299-3.886-3.483 0-2.54 1.943-4.448 4.725-4.448M42.908 37.543l1.012-4.564h2.011l-1 4.518a1.084 1.084 0 0 0-.034.322c.011.632.46 1.241 1.402 1.241 1.023 0 1.529-.667 1.724-1.563l1.001-4.518h2.011l-1.011 4.552c-.403 1.862-1.391 3.253-3.725 3.253-2.31 0-3.448-1.126-3.448-2.736 0-.126.034-.39.057-.505M52.414 32.979h5.621l-.368 1.667h-3.643l-.276 1.276H57.3l-.368 1.678H53.38l-.31 1.38h3.643l-.367 1.666h-5.621l1.689-7.667Z" style="fill:#fff;fill-rule:nonzero"/><text x="32.607" y="921.186" style="font-family:&quot;Montserrat-Bold&quot;,&quot;Montserrat&quot;;font-weight:700;font-size:30.212px;fill:#fff" transform="matrix(.6532 0 0 .72577 -15.528 -577.939)">HALF</text><text x="35.938" y="950.697" style="font-family:&quot;Montserrat-Bold&quot;,&quot;Montserrat&quot;;font-weight:700;font-size:30.212px;fill:#fff" transform="matrix(.6532 0 0 .72577 -15.286 -577.939)">TIME</text><path d="M.25 61.95h66.635" style="fill:none;stroke:#fff;stroke-width:.5px"/></svg>