<svg xmlns="http://www.w3.org/2000/svg" xml:space="preserve" id="Layer_1" x="0" y="0" style="enable-background:new 0 0 50.63 48.98" version="1.1" viewBox="0 0 50.63 48.98"><style>.st1{fill:#fff}</style><path d="M50.63 11.2v37.78H0V0h39.43c6.18 0 11.2 5.02 11.2 11.2z" style="fill-rule:evenodd;clip-rule:evenodd;fill:#047cbc"/><path d="M16.09 27.08V16.96c0-.22-.04-.42-.11-.58-.07-.16-.22-.28-.45-.36l-.34-.14a4.22 4.22 0 0 1-.58-.32c-.12-.09-.17-.24-.17-.45 0-.29.15-.5.45-.63.3-.13.66-.19 1.08-.19h5.96c.46 0 .83.06 1.11.17.28.11.42.33.42.65 0 .24-.06.4-.19.47-.13.07-.31.17-.56.3l-.34.15c-.23.08-.38.2-.45.36-.07.16-.11.36-.11.6v9.52c0 1.04-.1 1.9-.31 2.57-.21.67-.69 1.25-1.43 1.75s-1.68.87-2.82 1.11c-1.14.24-2.24.36-3.31.36-2.01 0-3.75-.34-5.24-1.01-1.48-.67-2.23-1.73-2.23-3.17 0-.96.43-1.75 1.29-2.36.86-.61 1.93-.91 3.23-.91.67 0 1.28.12 1.82.36s.82.59.82 1.06c0 .45-.5.8-1.51 1.06-1 .26-1.51.71-1.51 1.37 0 .54.26.97.77 1.28.51.31 1.13.47 1.87.47 1.15 0 1.91-.31 2.29-.93.36-.64.55-1.44.55-2.44zM31.09 31.68c0 .16.03.32.08.47.05.15.1.29.16.4.05.11.14.21.25.29.11.08.37.18.75.29.39.11.64.22.75.33.11.1.17.27.17.49 0 .35-.19.57-.58.64-.39.07-.9.11-1.55.11h-5.86c-.46 0-.83-.06-1.11-.17-.28-.11-.42-.33-.42-.65 0-.24.06-.4.19-.47.13-.07.31-.17.56-.3l.34-.15c.23-.08.38-.2.45-.36.07-.16.11-.36.11-.6V19.67c0-.23-.04-.42-.11-.58-.07-.16-.22-.28-.45-.36l-.34-.14c-.27-.12-.47-.23-.58-.32-.12-.09-.17-.23-.17-.43 0-.28.15-.49.45-.61.3-.13.66-.19 1.08-.19h9.69c1.21 0 2.29.06 3.25.17.95.11 1.9.36 2.85.74.95.38 1.71.9 2.27 1.57s.85 1.44.85 2.33c0 1.08-.43 2.04-1.3 2.87-.87.84-1.94 1.5-3.21 1.98-1.28.48-2.64.83-4.09 1.04-1.45.21-2.94.31-4.47.31v3.63zm0-5.5c1.9-.19 3.54-.62 4.91-1.28s2.05-1.63 2.05-2.92c0-1.01-.42-1.81-1.25-2.39-.84-.58-1.92-.87-3.26-.87-.48 0-.87.02-1.18.07-.3.05-.58.16-.82.34-.24.18-.38.41-.41.71-.03.3-.05.53-.05.71v5.63z" class="st1"/></svg>