<svg xmlns="http://www.w3.org/2000/svg" xml:space="preserve" id="Layer_1" x="0" y="0" style="enable-background:new 0 0 101.62 24.95" version="1.1" viewBox="0 0 101.62 24.95"><style>.st0{fill:#fff}</style><path d="M97.3 19.36c-.49-.09-.89-.2-1.19-.33-.3-.13-.45-.33-.45-.6 0-.32.17-.56.52-.72.34-.16.74-.24 1.19-.24.82 0 1.49.25 2 .74s.88.74 1.1.74c.3 0 .49-.07.56-.22.07-.15.11-.36.11-.62s-.03-.5-.09-.7c-.06-.21-.24-.38-.55-.53-.31-.15-.8-.28-1.48-.4-.68-.11-1.31-.17-1.89-.17-1.34 0-2.53.24-3.56.73-1.04.48-1.55 1.21-1.55 2.18 0 .88.3 1.43.89 1.65.6.22 1.56.47 2.91.74 1.34.27 2.01.64 2.01 1.1 0 .34-.2.6-.6.76-.4.17-.83.25-1.3.25-.6 0-1.05-.1-1.36-.29-.31-.2-.6-.41-.87-.63-.27-.22-.46-.37-.58-.44-.12-.07-.29-.1-.51-.1-.27 0-.49.08-.67.24-.18.16-.27.34-.27.55 0 .32.18.6.53.85.35.25.86.49 1.52.72.66.23 1.55.34 2.67.34.58 0 1.19-.06 1.82-.17.63-.11 1.2-.29 1.71-.54.51-.25.92-.56 1.24-.95.32-.39.48-.82.48-1.3 0-.72-.29-1.25-.86-1.6-.58-.34-1.38-.62-2.41-.82l-1.07-.22zm-11.05 3.45c-.34.64-1.01.96-2.01.96-.95 0-1.61-.32-1.97-.97-.36-.65-.54-1.39-.54-2.24 0-.8.2-1.5.59-2.11.39-.61 1.05-.91 1.96-.91.89 0 1.53.3 1.91.89.38.59.57 1.27.57 2.04 0 .92-.17 1.7-.51 2.34m-4.39 1.89c.72.17 1.51.25 2.36.25 1.71 0 3.21-.41 4.48-1.22 1.27-.81 1.91-1.86 1.91-3.16 0-1.25-.62-2.27-1.87-3.07-1.24-.8-2.69-1.2-4.32-1.2-.89 0-1.73.1-2.51.3-.78.2-1.48.51-2.09.93-.61.42-1.08.89-1.42 1.43-.34.54-.5 1.1-.5 1.7 0 .63.17 1.22.51 1.78.34.56.83 1.04 1.48 1.44.58.39 1.24.66 1.97.82M69.62 14.64c0-.13.01-.29.03-.51.02-.21.12-.38.29-.51.17-.13.36-.21.58-.24.22-.03.5-.05.84-.05.95 0 1.73.21 2.32.62.6.41.89.98.89 1.7 0 .92-.49 1.61-1.46 2.08-.98.47-2.14.77-3.5.91v-4zm0 5.33c1.09 0 2.15-.07 3.18-.22 1.04-.15 2.01-.4 2.92-.74.91-.34 1.67-.81 2.29-1.41.62-.6.93-1.28.93-2.05 0-.63-.2-1.18-.6-1.66-.4-.48-.94-.85-1.62-1.12-.68-.27-1.36-.44-2.03-.52-.68-.08-1.45-.12-2.31-.12h-6.91c-.3 0-.56.04-.77.13-.22.09-.32.23-.32.43 0 .14.04.25.12.31.08.06.22.14.41.23l.25.1c.16.06.27.14.32.26.05.11.08.25.08.41v8.78c0 .17-.03.32-.08.43-.05.11-.16.2-.32.26l-.25.1c-.18.09-.31.16-.4.22-.09.05-.13.16-.13.34 0 .23.1.39.3.47.2.08.47.12.79.12h4.18c.46 0 .83-.03 1.11-.08.28-.05.41-.2.41-.46 0-.16-.04-.28-.12-.35-.08-.07-.26-.15-.54-.23-.28-.08-.45-.15-.54-.21a.595.595 0 0 1-.18-.21c-.04-.08-.07-.17-.11-.28a.974.974 0 0 1-.06-.34v-2.59zm-18.39.37v.55c0 .48-.02.84-.07 1.07-.04.23-.17.48-.39.74-.21.26-.47.47-.77.62-.3.15-.61.22-.96.22-.43 0-.77-.12-1.02-.36s-.38-.53-.38-.87c0-.65.31-1.14.93-1.47.62-.33 1.37-.5 2.24-.5h.42zm3.64-.7c0-.65-.13-1.19-.4-1.62-.27-.42-.7-.77-1.3-1.03-.6-.26-1.21-.44-1.85-.54-.64-.1-1.3-.15-1.99-.15-.97 0-1.98.11-3.04.32-1.06.21-1.59.58-1.59 1.11 0 .29.13.5.4.63s.6.2.98.2c.4 0 .9-.18 1.49-.55.59-.37 1.08-.55 1.49-.55.7 0 1.22.16 1.56.49.34.33.51.76.51 1.32h-.76c-1.64 0-3.13.23-4.47.7-1.34.47-2.01 1.25-2.01 2.33 0 .83.39 1.49 1.17 1.95s1.73.7 2.84.7c.73 0 1.4-.11 2.01-.32.61-.21 1.09-.54 1.45-.98 0 .42.07.71.2.85s.47.21 1.01.21h2.25c.37 0 .67-.03.89-.09.22-.06.33-.22.33-.46 0-.15-.04-.25-.12-.32-.08-.06-.23-.13-.46-.21-.22-.08-.37-.18-.45-.3a.893.893 0 0 1-.12-.46c-.01-.18-.01-.36-.01-.52v-2.71zm-12.38-3.2h-1.83c-.31 0-.56.03-.74.09-.18.06-.27.18-.27.38 0 .22.17.41.5.58.34.17.5.42.5.75 0 .55-.21 1.31-.61 2.28-.41.97-.82 1.76-1.24 2.37l-1.34-2.67c-.24-.65-.41-1.15-.5-1.49-.1-.34-.15-.62-.15-.84 0-.17.13-.32.38-.45s.38-.28.38-.46c0-.24-.1-.39-.29-.45-.19-.06-.5-.09-.92-.09h-2.95c-.27 0-.51.03-.72.1-.21.07-.31.19-.31.38 0 .13.03.22.08.27.05.06.18.15.38.28.2.13.33.27.39.41.06.14.09.35.09.63v.21c0 1.44-.45 2.83-1.34 4.17-.28-.37-.52-.74-.72-1.12-.19-.38-.4-.88-.61-1.5-.22-.62-.37-1.11-.47-1.49-.1-.38-.15-.67-.15-.87 0-.16.13-.3.39-.42s.39-.28.39-.49c0-.24-.09-.39-.28-.45-.19-.06-.47-.09-.86-.09h-3.22c-.33 0-.59.03-.77.1-.19.07-.28.21-.28.43 0 .13.05.24.16.33.1.1.22.19.34.27.12.08.2.18.25.3.04.12.08.23.11.33l.25.86c.24.81.52 1.58.85 2.32.33.73.69 1.41 1.08 2.04.39.63.73 1.04 1.02 1.24.28.19.76.29 1.43.29.42 0 .74-.04.97-.13.23-.09.5-.3.82-.63.31-.34.59-.7.84-1.1.25-.4.52-.91.82-1.52.34.7.63 1.25.87 1.66.24.41.5.76.79 1.06.29.3.56.48.79.56.24.07.57.11 1.01.11.33 0 .6-.03.83-.08.22-.05.44-.16.66-.33.22-.17.45-.43.69-.78.25-.35.47-.71.66-1.06l1.86-4.41c.09-.25.16-.41.21-.49.05-.07.16-.18.31-.31.16-.13.26-.24.32-.32.06-.08.09-.17.09-.26 0-.19-.08-.32-.25-.39-.16-.08-.39-.11-.69-.11zm-22.11 3.9v.55c0 .48-.02.84-.07 1.07-.04.23-.17.48-.39.74-.21.26-.47.47-.77.62-.3.15-.61.22-.96.22-.43 0-.77-.12-1.02-.36s-.38-.53-.38-.87c0-.65.31-1.14.93-1.47.62-.33 1.37-.5 2.24-.5h.42zm3.65-.7c0-.65-.13-1.19-.4-1.62-.27-.42-.7-.77-1.3-1.03-.6-.26-1.21-.44-1.86-.54-.64-.1-1.3-.15-1.99-.15-.97 0-1.98.11-3.04.32-1.06.21-1.59.58-1.59 1.11 0 .29.13.5.4.63s.6.2.98.2c.4 0 .9-.18 1.49-.55.59-.37 1.08-.55 1.49-.55.7 0 1.22.16 1.56.49.34.33.51.76.51 1.32h-.76c-1.64 0-3.13.23-4.47.7-1.34.47-2.01 1.25-2.01 2.33 0 .83.39 1.49 1.17 1.95.78.47 1.73.7 2.84.7.73 0 1.4-.11 2.01-.32.61-.21 1.09-.54 1.45-.98 0 .42.07.71.2.85s.47.21 1.01.21h2.25c.37 0 .67-.03.89-.09.22-.06.33-.22.33-.46 0-.15-.04-.25-.12-.32-.08-.06-.23-.13-.46-.21-.22-.08-.37-.18-.45-.3a.893.893 0 0 1-.12-.46c-.01-.18-.01-.36-.01-.52v-2.71zm-17.17 1.6c0 .71-.13 1.28-.4 1.73-.27.44-.81.66-1.63.66-.52 0-.96-.11-1.33-.33-.37-.22-.55-.53-.55-.92 0-.47.36-.79 1.07-.98.72-.18 1.07-.43 1.07-.75 0-.33-.19-.58-.58-.75a3.21 3.21 0 0 0-1.3-.26c-.92 0-1.69.22-2.3.65-.6.44-.91 1-.91 1.68 0 1.03.53 1.78 1.59 2.26 1.06.48 2.3.72 3.73.72.76 0 1.55-.09 2.36-.26.81-.17 1.48-.43 2.01-.79.53-.35.87-.77 1.02-1.24.15-.47.22-1.08.22-1.83v-6.78c0-.17.03-.31.08-.43.05-.11.16-.2.32-.26l.25-.1c.18-.09.31-.16.4-.21.09-.05.13-.16.13-.34 0-.23-.1-.38-.3-.46-.2-.08-.47-.12-.79-.12H6.77c-.3 0-.56.05-.77.14-.22.09-.32.24-.32.45 0 .15.04.25.12.32.08.06.22.14.41.23l.25.1c.16.06.27.14.32.26.05.11.08.25.08.41v7.2zM78.9.12h-2.04v5.2L73.44.12H71.4v8.39h2.04V3.33l3.42 5.18h2.04V.12zM61.63 5.45l1.03-3.07 1.04 3.07h-2.07zm3.09 3.06h2.16L63.84.12h-2.37l-3.04 8.39h2.14l.5-1.48h3.13l.52 1.48zM49.67 1.82h1.27c.37 0 .66.09.84.27.19.18.28.43.28.75 0 .33-.09.59-.28.78-.19.18-.47.28-.85.28h-1.27V1.82zm4.54 6.69-1.94-3.32c.61-.18 1.08-.49 1.39-.93.31-.44.47-.94.47-1.49 0-.49-.12-.94-.35-1.34-.23-.4-.58-.72-1.05-.95-.47-.23-1.03-.35-1.69-.35h-3.43v8.39h2.04V5.34h.49l1.74 3.17h2.33zm-15.6-1.78c-.68 0-1.22-.22-1.62-.66-.4-.44-.6-1.03-.6-1.77 0-.75.2-1.34.6-1.78.4-.44.94-.66 1.62-.66.67 0 1.21.22 1.61.66.4.44.6 1.03.6 1.77 0 .73-.2 1.32-.6 1.77-.41.45-.94.67-1.61.67m0 1.86c.79 0 1.51-.18 2.16-.55.65-.37 1.17-.88 1.55-1.54.38-.66.57-1.4.57-2.22s-.19-1.56-.57-2.21c-.38-.65-.9-1.16-1.55-1.53C40.12.18 39.4 0 38.61 0s-1.51.18-2.17.55c-.66.37-1.18.88-1.57 1.53-.39.65-.58 1.39-.58 2.21s.19 1.56.58 2.22c.39.66.91 1.17 1.57 1.54.66.36 1.38.54 2.17.54m-8.52-.08-3.37-4.28L29.97.12h-2.4l-2.8 3.68V.12h-2.04v8.39h2.04V4.8l2.82 3.71h2.5z" class="st0"/></svg>